<svg width="127" height="127" viewBox="0 0 127 127" fill="none" xmlns="http://www.w3.org/2000/svg">
<path d="M64.6642 10.5833H62.3358C59.529 10.5833 56.837 11.6984 54.8523 13.6831C52.8675 15.6679 51.7525 18.3598 51.7525 21.1667V22.1192C51.7506 23.9751 51.2607 25.7979 50.3319 27.4047C49.4031 29.0115 48.0681 30.3458 46.4608 31.2737L44.1854 32.5967C42.5765 33.5255 40.7515 34.0146 38.8937 34.0146C37.036 34.0146 35.211 33.5255 33.6021 32.5967L32.8083 32.1733C30.3798 30.7724 27.4946 30.3924 24.7862 31.1166C22.0777 31.8409 19.7673 33.6102 18.3621 36.0362L17.1979 38.0471C15.797 40.4756 15.417 43.3608 16.1412 46.0692C16.8655 48.7777 18.6348 51.0881 21.0608 52.4933L21.8546 53.0225C23.4541 53.946 24.7842 55.2719 25.7125 56.8686C26.6408 58.4654 27.1351 60.2772 27.1462 62.1242V64.8229C27.1537 66.6878 26.6681 68.5215 25.7389 70.1384C24.8096 71.7553 23.4696 73.098 21.8546 74.0304L21.0608 74.5067C18.6348 75.9119 16.8655 78.2223 16.1412 80.9308C15.417 83.6392 15.797 86.5244 17.1979 88.9529L18.3621 90.9638C19.7673 93.3898 22.0777 95.1591 24.7862 95.8834C27.4946 96.6076 30.3798 96.2276 32.8083 94.8267L33.6021 94.4033C35.211 93.4745 37.036 92.9854 38.8937 92.9854C40.7515 92.9854 42.5765 93.4745 44.1854 94.4033L46.4608 95.7263C48.0681 96.6542 49.4031 97.9885 50.3319 99.5953C51.2607 101.202 51.7506 103.025 51.7525 104.881V105.833C51.7525 108.64 52.8675 111.332 54.8523 113.317C56.837 115.302 59.529 116.417 62.3358 116.417H64.6642C67.471 116.417 70.163 115.302 72.1477 113.317C74.1325 111.332 75.2475 108.64 75.2475 105.833V104.881C75.2494 103.025 75.7393 101.202 76.6681 99.5953C77.5969 97.9885 78.9319 96.6542 80.5392 95.7263L82.8146 94.4033C84.4235 93.4745 86.2485 92.9854 88.1063 92.9854C89.964 92.9854 91.789 93.4745 93.3979 94.4033L94.1917 94.8267C96.6202 96.2276 99.5054 96.6076 102.214 95.8834C104.922 95.1591 107.233 93.3898 108.638 90.9638L109.802 88.9C111.203 86.4715 111.583 83.5863 110.859 80.8778C110.135 78.1694 108.365 75.859 105.939 74.4538L105.145 74.0304C103.53 73.098 102.19 71.7553 101.261 70.1384C100.332 68.5215 99.8464 66.6878 99.8538 64.8229V62.1771C99.8464 60.3122 100.332 58.4785 101.261 56.8616C102.19 55.2447 103.53 53.902 105.145 52.9696L105.939 52.4933C108.365 51.0881 110.135 48.7777 110.859 46.0692C111.583 43.3608 111.203 40.4756 109.802 38.0471L108.638 36.0362C107.233 33.6102 104.922 31.8409 102.214 31.1166C99.5054 30.3924 96.6202 30.7724 94.1917 32.1733L93.3979 32.5967C91.789 33.5255 89.964 34.0146 88.1063 34.0146C86.2485 34.0146 84.4235 33.5255 82.8146 32.5967L80.5392 31.2737C78.9319 30.3458 77.5969 29.0115 76.6681 27.4047C75.7393 25.7979 75.2494 23.9751 75.2475 22.1192V21.1667C75.2475 18.3598 74.1325 15.6679 72.1477 13.6831C70.163 11.6984 67.471 10.5833 64.6642 10.5833Z" stroke="#2563EB" stroke-width="4" stroke-linecap="round" stroke-linejoin="round"/>
<path d="M63.5 79.375C72.2675 79.375 79.375 72.2675 79.375 63.5C79.375 54.7325 72.2675 47.625 63.5 47.625C54.7325 47.625 47.625 54.7325 47.625 63.5C47.625 72.2675 54.7325 79.375 63.5 79.375Z" stroke="#EA580C" stroke-width="4" stroke-linecap="round" stroke-linejoin="round"/>
</svg>
